<?xml version="1.0" encoding="iso-8859-1"?>
<!-- Generator: Adobe Illustrator 19.0.0, SVG Export Plug-In . SVG Version: 6.00 Build 0)  -->
<svg version="1.1" id="Layer_1" xmlns="http://www.w3.org/2000/svg" xmlns:xlink="http://www.w3.org/1999/xlink" x="0px" y="0px"
	 viewBox="0 0 512 512" style="enable-background:new 0 0 512 512;" xml:space="preserve">
<path style="fill:#FB9D46;" d="M506.507,203.068C482.121,87.083,379.236,0,256,0C114.615,0,0,114.615,0,256
	c0,113.508,73.882,209.746,176.175,243.29L506.507,203.068z"/>
<path style="fill:#FF7452;" d="M278.895,161.109L168.314,50.528l-62.575,228.986l46.821,46.821l-41.116,26.862l-5.985,75.376
	l70.715,70.715C201.296,507.528,228.124,512,256,512c141.384,0,256-114.615,256-256c0-18.148-1.901-35.851-5.493-52.932
	L371.721,68.282L278.895,161.109z"/>
<path style="fill:#F2F2F2;" d="M331.487,333.153l-22.061,48.206l-46.369-122.202c0-0.011,12.856-22.272,12.856-22.272
	L331.487,333.153z"/>
<polygon style="fill:#CCCCCC;" points="312.209,344.282 301.477,414.739 237.357,303.667 263.057,259.157 "/>
<polygon style="fill:#F2F2F2;" points="243.144,180.142 226.511,236.885 149.037,61.658 168.314,50.528 "/>
<path style="fill:#CCCCCC;" d="M149.037,61.658l94.108,163.013l-38.556,22.253l-71.847-124.449
	C120.498,101.271,127.833,73.902,149.037,61.658z"/>
<polygon style="fill:#B2EBF2;" points="275.912,236.885 246.262,288.245 230.3,202.402 243.144,180.142 "/>
<path style="fill:#00ACC1;" d="M263.057,259.145c0,0.011-25.7,44.522-25.7,44.522l-32.768-56.743l25.7-44.511L263.057,259.145z"/>
<polygon style="fill:#F7EDBC;" points="105.739,279.514 105.739,123.688 162.717,123.688 289.391,201.601 162.717,279.514 "/>
<g>
	<rect x="162.716" y="123.693" style="fill:#FDBA4C;" width="44.522" height="22.261"/>
	<rect x="162.716" y="212.736" style="fill:#FDBA4C;" width="44.522" height="22.261"/>
	<rect x="162.716" y="168.214" style="fill:#FDBA4C;" width="44.522" height="22.261"/>
	<rect x="162.716" y="257.258" style="fill:#FDBA4C;" width="44.522" height="22.261"/>
</g>
<rect x="184.977" y="123.693" style="fill:#FBE287;" width="221.284" height="155.826"/>
<rect x="217.043" y="145.953" style="fill:#FFD652;" width="166.957" height="111.304"/>
<path style="fill:#CCCCCC;" d="M325.921,323.512c-31.891,18.412-42.857,59.336-24.445,91.227s59.336,42.857,91.227,24.445
	s42.857-59.336,24.445-91.227C398.736,316.065,357.812,305.1,325.921,323.512z M339.834,347.61
	c18.603-10.741,42.475-4.344,53.216,14.259c10.741,18.603,4.344,42.475-14.259,53.216c-18.603,10.741-42.475,4.344-53.216-14.259
	C314.834,382.222,321.231,358.35,339.834,347.61z"/>
<polygon style="fill:#FFFFFF;" points="343.687,50.527 180.513,333.151 207.658,373.638 362.965,61.657 "/>
<g>
	<path style="fill:#E5E5E5;" d="M199.792,344.281l10.731,70.457l168.739-292.264c12.243-21.207,4.911-48.574-16.296-60.818
		L199.792,344.281z"/>
	<path style="fill:#E5E5E5;" d="M186.079,323.512c-31.891-18.412-72.814-7.446-91.227,24.445
		c-18.412,31.891-7.446,72.814,24.445,91.227c31.891,18.412,72.814,7.446,91.227-24.445
		C228.935,382.848,217.97,341.924,186.079,323.512z M133.209,415.084c-18.603-10.741-24.999-34.612-14.259-53.216
		c10.741-18.603,34.612-24.999,53.216-14.259c18.603,10.74,24.999,34.612,14.259,53.216
		C175.684,419.428,151.812,425.825,133.209,415.084z"/>
</g>
<g>
</g>
<g>
</g>
<g>
</g>
<g>
</g>
<g>
</g>
<g>
</g>
<g>
</g>
<g>
</g>
<g>
</g>
<g>
</g>
<g>
</g>
<g>
</g>
<g>
</g>
<g>
</g>
<g>
</g>
</svg>
